<?xml version="1.0" standalone="no"?>
<!DOCTYPE svg PUBLIC "-//W3C//DTD SVG 20010904//EN"
 "http://www.w3.org/TR/2001/REC-SVG-20010904/DTD/svg10.dtd">
<svg version="1.0" xmlns="http://www.w3.org/2000/svg"
 width="375.000000pt" height="813.000000pt" viewBox="0 0 375.000000 813.000000"
 preserveAspectRatio="xMidYMid meet">

<g transform="translate(0.000000,813.000000) scale(0.100000,-0.100000)"
fill="#000000" stroke="none">
<path d="M1248 8022 c-7 -58 3 -832 10 -832 5 0 17 7 28 16 18 14 18 15 -4 4
l-23 -11 2 415 c1 234 5 416 10 416 5 0 9 -3 9 -7 0 -5 40 -30 89 -58 50 -27
88 -52 86 -55 -2 -4 2 -7 9 -7 7 0 91 -45 187 -100 196 -113 261 -150 302
-171 27 -13 27 -15 10 -27 -10 -7 -42 -25 -71 -40 -29 -15 -55 -31 -57 -36 -8
-12 42 11 90 42 22 14 49 30 59 36 18 10 16 13 -20 36 -58 37 -676 393 -696
400 -13 4 -18 -1 -20 -21z"/>
<path d="M1733 7472 c-45 -26 -85 -51 -90 -56 -10 -11 -9 -11 95 49 45 26 82
49 82 51 0 6 -1 6 -87 -44z"/>
<path d="M1598 7394 c-38 -20 -36 -28 2 -9 17 9 30 18 30 20 0 7 -1 6 -32 -11z"/>
<path d="M1438 7302 c-64 -37 -120 -71 -125 -76 -10 -11 -14 -13 130 69 99 56
129 76 115 75 -2 0 -56 -31 -120 -68z"/>
<path d="M581 7181 c-10 -6 1 -8 30 -4 24 3 46 7 48 9 10 9 -65 3 -78 -5z"/>
<path d="M695 7162 c42 -26 56 -46 72 -100 l13 -47 -5 45 c-5 43 -4 44 10 20
8 -14 14 -20 15 -15 0 32 -90 115 -125 115 -5 0 4 -8 20 -18z"/>
<path d="M534 7155 c-29 -20 -54 -76 -53 -117 1 -28 3 -25 10 16 5 35 17 59
40 82 35 36 36 43 3 19z"/>
<path d="M565 7080 c-3 -5 -3 -10 2 -10 4 0 1 -5 -7 -11 -12 -8 -12 -10 -1 -7
8 2 15 12 17 21 3 19 -2 22 -11 7z"/>
<path d="M802 7025 c0 -16 2 -22 5 -12 2 9 2 23 0 30 -3 6 -5 -1 -5 -18z"/>
<path d="M616 7032 c-3 -4 4 -9 15 -9 23 -2 25 3 4 10 -8 4 -16 3 -19 -1z"/>
<path d="M749 6977 c-23 -47 -83 -79 -134 -72 -50 7 -80 27 -105 68 -11 18
-20 27 -20 20 0 -21 51 -73 92 -94 38 -19 41 -19 84 -3 46 17 104 73 104 99 0
21 -3 19 -21 -18z"/>
<path d="M779 6957 c-9 -20 -32 -41 -59 -54 -24 -13 -39 -23 -32 -23 38 0 120
74 110 99 -2 5 -10 -5 -19 -22z"/>
<path d="M2858 5633 c12 -2 32 -2 45 0 12 2 2 4 -23 4 -25 0 -35 -2 -22 -4z"/>
<path d="M2786 5610 c-73 -47 -97 -148 -53 -224 33 -58 117 -106 182 -104 l50
1 -50 6 -50 6 42 7 c90 13 149 90 141 185 -6 63 7 57 28 -13 13 -45 13 -46 8
-9 -7 51 -32 98 -46 89 -7 -4 -8 -3 -4 4 4 7 -11 24 -40 42 -55 35 -83 41 -34
8 57 -39 75 -72 75 -138 0 -44 -5 -66 -21 -87 -74 -100 -201 -98 -271 6 -47
70 -23 165 56 218 19 13 30 23 25 23 -5 0 -22 -9 -38 -20z"/>
<path d="M2810 5530 c-8 -5 -10 -10 -5 -10 6 0 3 -5 -5 -10 -10 -7 -11 -10 -2
-10 7 0 15 7 19 16 5 12 7 13 14 3 4 -8 4 -16 -1 -19 -5 -3 0 -11 10 -18 12
-7 20 -8 20 -2 0 5 -5 10 -11 10 -5 0 -8 4 -5 9 10 16 -18 41 -34 31z"/>
<path d="M2945 5439 c-11 -16 -1 -19 13 -3 7 8 8 14 3 14 -5 0 -13 -5 -16 -11z"/>
<path d="M3055 5377 c-11 -23 -35 -52 -54 -64 -19 -13 -28 -23 -21 -23 21 0
100 86 100 109 0 28 -2 27 -25 -22z"/>
<path d="M2640 4146 c-200 -74 -366 -235 -445 -433 -13 -32 -26 -76 -29 -98
-5 -30 -2 -25 12 20 62 206 207 379 389 466 98 47 120 51 127 27 82 -316 192
-698 201 -698 6 0 168 43 360 95 262 71 351 92 357 83 14 -23 21 -121 16 -222
-13 -248 -146 -462 -368 -592 -41 -24 -70 -44 -65 -44 30 0 161 94 235 169
144 146 210 311 210 520 0 99 -10 174 -24 189 -4 3 -166 -38 -362 -92 -196
-53 -358 -95 -359 -94 -2 2 -47 164 -101 361 -54 196 -102 357 -108 356 -6 0
-27 -6 -46 -13z"/>
<path d="M2152 3545 c0 -16 2 -22 5 -12 2 9 2 23 0 30 -3 6 -5 -1 -5 -18z"/>
<path d="M2143 3435 c0 -38 2 -53 4 -32 2 20 2 52 0 70 -2 17 -4 1 -4 -38z"/>
<path d="M2152 3330 c0 -19 2 -27 5 -17 2 9 2 25 0 35 -3 9 -5 1 -5 -18z"/>
<path d="M2162 3275 c0 -11 3 -29 8 -40 11 -25 11 1 0 35 -6 20 -8 21 -8 5z"/>
<path d="M330 3147 c-20 -29 -89 -130 -153 -224 -65 -95 -116 -173 -113 -173
3 0 53 71 112 158 59 86 128 185 152 220 l45 64 26 -26 c21 -22 23 -28 11 -36
-8 -5 -19 -6 -25 -3 -5 4 -7 3 -3 -2 4 -4 2 -15 -5 -23 -9 -13 -9 -14 1 -8 8
5 12 1 12 -13 0 -10 6 -21 13 -24 8 -3 6 -10 -8 -26 -14 -16 -15 -22 -5 -19
21 4 33 38 19 54 -6 8 -9 21 -5 29 4 11 2 14 -6 9 -7 -5 -8 -3 -4 5 5 7 11 10
14 7 3 -3 11 -1 19 6 10 8 19 6 39 -13 13 -12 22 -29 20 -36 -3 -7 -1 -15 5
-19 15 -9 6 -27 -14 -30 -13 -2 -16 2 -12 17 4 12 1 21 -9 25 -9 3 -13 10 -10
15 3 5 10 7 15 4 5 -3 6 1 2 10 -5 14 -8 14 -15 3 -7 -9 -8 -8 -4 5 4 12 2 17
-6 14 -7 -2 -12 -13 -10 -23 2 -16 1 -17 -7 -4 -8 11 -11 11 -11 2 0 -7 7 -15
15 -18 8 -4 12 -11 8 -17 -4 -6 0 -8 10 -4 14 5 16 2 11 -18 -5 -21 -3 -25 15
-25 12 0 21 -6 21 -16 0 -8 5 -12 10 -9 8 5 7 12 -2 23 -11 13 -10 15 4 9 13
-4 16 -2 11 11 -3 9 -11 24 -16 32 -6 8 1 4 15 -10 14 -14 24 -28 22 -31 -2
-4 6 -15 17 -25 28 -25 58 -85 51 -103 -3 -9 0 -11 8 -6 9 6 9 3 1 -14 -11
-19 1 -32 12 -13 2 4 2 2 1 -5 -2 -6 2 -14 9 -17 7 -2 5 -5 -5 -5 -9 -1 -19
-7 -22 -13 -3 -8 -5 -8 -3 2 1 8 -3 15 -8 15 -5 0 -8 -6 -7 -14 2 -7 -1 -10
-7 -6 -16 9 -14 26 6 47 9 10 12 18 6 18 -6 0 -9 11 -8 25 2 16 -1 23 -8 18
-6 -4 -8 0 -4 10 4 10 2 16 -6 14 -7 -1 -11 6 -9 16 3 17 -12 24 -21 10 -2 -5
-2 -3 -1 4 5 21 -14 24 -21 3 -4 -12 0 -26 9 -36 9 -8 16 -12 16 -8 0 4 9 -1
20 -11 19 -17 29 -41 12 -32 -9 7 -9 -65 1 -80 4 -6 17 -10 28 -8 13 3 19 0
16 -8 -3 -7 -11 -10 -18 -9 -8 2 -10 0 -6 -4 11 -11 38 -14 31 -3 -3 5 0 9 7
9 8 0 7 5 -2 17 -12 14 -12 16 1 11 8 -3 15 -14 14 -26 0 -12 3 -19 8 -16 4 3
8 -3 9 -13 0 -10 3 -27 6 -38 7 -28 11 -212 6 -257 -3 -21 -9 -36 -13 -33 -5
3 -6 -3 -3 -13 6 -23 -14 -75 -26 -68 -5 3 -8 14 -6 24 1 9 0 11 -2 5 -3 -7
-13 -13 -24 -13 -10 0 -20 -3 -20 -7 -1 -5 -3 -21 -4 -38 l-3 -30 13 29 c9 21
13 25 18 13 3 -9 -3 -27 -14 -41 -14 -18 -19 -35 -15 -54 3 -15 2 -34 -4 -42
-8 -13 -13 -13 -31 -2 -16 10 -24 11 -33 2 -8 -9 -7 -11 4 -9 8 1 23 -1 33 -6
13 -5 15 -11 7 -21 -7 -7 -18 -10 -27 -7 -12 5 -12 7 -1 15 9 6 5 7 -11 3 -16
-5 -21 -4 -17 4 4 6 2 11 -4 11 -6 0 -8 -11 -6 -26 3 -16 -2 -32 -15 -45 -15
-15 -17 -24 -10 -38 10 -18 6 -31 -11 -31 -5 0 -6 6 -2 13 4 7 3 9 -2 4 -5 -5
-9 -12 -9 -16 0 -3 -11 -18 -24 -31 -20 -21 -23 -22 -17 -5 4 11 4 16 0 12 -4
-4 -14 -1 -22 6 -13 10 -14 9 -2 -10 12 -18 12 -24 0 -37 -7 -9 -15 -14 -18
-11 -3 3 -13 -2 -23 -11 -11 -10 -23 -13 -31 -8 -18 12 -78 12 -78 1 0 -5 -6
-4 -14 2 -19 16 -45 3 -52 -25 -7 -28 -22 -31 -40 -6 -10 12 -13 13 -14 3 0
-21 32 -41 47 -29 7 6 13 16 13 23 0 19 27 38 42 28 17 -11 68 -12 68 -1 0 4
4 8 8 8 5 0 9 -7 9 -15 0 -8 -4 -12 -9 -9 -4 3 -8 0 -8 -6 0 -6 -4 -9 -9 -6
-5 3 -14 -1 -21 -10 -7 -8 -19 -13 -27 -10 -7 3 -13 1 -13 -4 0 -6 -7 -10 -15
-10 -9 0 -12 6 -9 18 5 14 4 14 -4 2 -6 -8 -9 -17 -6 -21 7 -12 -34 -17 -47
-5 -9 8 -10 8 -6 0 4 -7 0 -15 -9 -18 -22 -8 -44 -8 -42 2 0 4 -2 15 -7 25 -4
10 -2 23 5 32 7 8 8 15 3 15 -5 0 -16 -11 -23 -25 -7 -14 -17 -25 -22 -25 -11
0 -10 24 1 35 6 6 5 17 -4 28 -12 16 -13 14 -13 -20 0 -44 16 -72 29 -51 7 10
11 10 21 0 9 -9 9 -12 -3 -12 -12 0 -12 -2 1 -10 11 -7 7 -10 -20 -11 -20 -1
-27 -3 -16 -6 76 -20 343 88 432 175 12 11 25 18 30 14 4 -4 4 -2 1 4 -4 7 10
27 31 46 20 18 42 42 49 53 6 11 16 19 22 18 6 -2 8 4 5 12 -5 11 -2 13 12 8
17 -6 17 -5 5 10 -12 15 -11 17 5 18 11 0 14 3 6 6 -9 4 -7 14 7 41 34 63 58
121 60 148 0 8 5 13 10 10 5 -3 15 2 22 12 13 15 12 16 -3 4 -9 -8 -19 -9 -22
-4 -3 6 1 12 9 16 8 3 15 13 14 23 0 16 -1 16 -9 -2 -6 -14 -9 -16 -9 -4 -1
17 17 123 26 153 3 12 1 16 -6 12 -17 -11 -13 40 5 58 8 9 12 16 7 16 -4 0 -3
4 4 8 8 5 9 13 3 22 -7 11 -10 8 -15 -13 -4 -15 -11 -27 -16 -27 -8 0 -14 54
-10 87 1 6 -3 14 -9 18 -13 8 -13 51 1 77 8 15 8 22 -1 28 -8 5 -9 13 -4 21 6
11 5 12 -8 2 -8 -7 -18 -10 -22 -6 -4 4 -4 0 -1 -9 4 -10 10 -16 13 -15 7 2
12 -7 12 -23 0 -26 -19 -5 -35 38 -10 26 -25 56 -34 66 -15 18 -15 18 7 5 12
-8 22 -17 22 -21 0 -5 5 -8 11 -8 8 0 9 4 0 13 -6 8 -8 16 -5 19 3 3 -3 5 -13
5 -9 -1 -18 3 -18 10 0 6 -3 15 -7 19 -4 4 -2 14 5 23 11 14 10 14 -6 2 -14
-11 -15 -16 -5 -29 11 -13 10 -14 -2 -10 -16 5 -21 46 -8 64 10 14 -18 27 -42
19 -22 -7 -54 29 -46 52 4 9 4 15 1 11 -4 -3 -32 9 -63 28 -32 19 -59 34 -62
34 -3 -1 -21 -24 -40 -53z m237 -98 c-1 -14 -4 -15 -14 -7 -17 14 -16 25 1 25
8 0 14 -8 13 -18z m50 -711 c-3 -8 -6 -5 -6 6 -1 11 2 17 5 13 3 -3 4 -12 1
-19z m6 -30 c-7 -13 -9 -17 -12 -37 -2 -15 -28 -20 -28 -5 0 7 4 11 8 9 4 -3
10 6 13 20 4 14 11 25 17 25 6 0 7 -5 2 -12z m-103 -158 c13 -9 11 -14 -12
-35 -16 -13 -28 -30 -28 -37 0 -10 -2 -10 -9 1 -6 9 -4 19 5 28 13 14 18 28
15 46 -1 10 11 9 29 -3z"/>
<path d="M496 2123 c-6 -14 -5 -15 5 -6 7 7 10 15 7 18 -3 3 -9 -2 -12 -12z"/>
<path d="M435 3191 c-6 -11 13 -26 22 -17 4 3 1 6 -6 6 -7 0 -9 5 -6 10 3 6 4
10 1 10 -3 0 -7 -4 -11 -9z"/>
<path d="M2190 3175 c0 -5 5 -17 10 -25 5 -8 10 -10 10 -5 0 6 -5 17 -10 25
-5 8 -10 11 -10 5z"/>
<path d="M2210 3124 c0 -6 7 -19 16 -30 14 -18 14 -18 3 6 -14 31 -19 36 -19
24z"/>
<path d="M515 3101 c-3 -5 -2 -12 3 -15 5 -3 9 1 9 9 0 17 -3 19 -12 6z"/>
<path d="M351 3054 c-15 -18 -18 -25 -8 -21 9 3 17 1 19 -5 2 -6 8 -5 15 3 6
8 8 22 4 32 -6 16 -9 15 -30 -9z"/>
<path d="M2258 3038 c39 -62 97 -130 142 -165 33 -27 26 -16 -31 43 -41 43
-85 96 -98 117 -12 20 -25 37 -28 37 -3 0 4 -14 15 -32z"/>
<path d="M300 3010 c-8 -5 -10 -10 -5 -10 6 0 17 5 25 10 8 5 11 10 5 10 -5 0
-17 -5 -25 -10z"/>
<path d="M283 2976 c0 -8 8 -11 20 -8 14 4 16 7 5 13 -19 12 -25 11 -25 -5z"/>
<path d="M264 2951 c3 -5 -5 -16 -19 -25 -15 -10 -22 -22 -19 -31 5 -11 1 -14
-12 -9 -13 4 -15 3 -6 -3 13 -10 6 -43 -12 -55 -6 -4 -7 -11 -2 -15 5 -4 11
-2 13 5 3 6 10 12 16 12 7 0 -2 -12 -18 -27 -16 -16 -33 -27 -37 -25 -5 1 -8
-3 -8 -9 0 -5 -3 -9 -7 -7 -14 7 -59 -48 -48 -58 10 -9 21 -10 83 -4 l27 2
-29 7 c-35 7 -47 29 -14 26 13 -1 15 0 6 2 -22 5 -24 23 -3 23 8 0 15 5 15 11
0 6 7 8 17 5 10 -4 14 -4 10 0 -4 4 -1 14 7 23 7 9 16 26 19 39 4 19 3 21 -9
11 -8 -6 -14 -8 -14 -3 0 16 14 29 42 41 21 9 25 17 21 34 -5 18 -3 21 10 16
9 -3 19 -1 23 6 4 7 4 9 0 5 -5 -4 -19 -3 -33 3 -13 5 -22 5 -19 0z m1 -41
c-3 -5 -13 -10 -21 -10 -8 0 -12 5 -9 10 3 6 13 10 21 10 8 0 12 -4 9 -10z
m-124 -179 c-6 -10 -7 -21 -3 -25 3 -4 -1 -4 -10 -1 -15 6 -15 8 0 26 21 24
26 24 13 0z"/>
<path d="M480 2946 c0 -2 7 -7 16 -10 8 -3 12 -2 9 4 -6 10 -25 14 -25 6z"/>
<path d="M169 2833 c-13 -16 -12 -17 4 -4 9 7 17 15 17 17 0 8 -8 3 -21 -13z"/>
<path d="M688 2821 c-3 -24 -1 -27 15 -23 13 3 15 7 6 12 -6 5 -9 15 -6 24 4
9 3 16 -2 16 -5 0 -11 -13 -13 -29z"/>
<path d="M2470 2820 c51 -45 232 -121 284 -119 12 0 -9 8 -45 18 -71 19 -179
67 -232 102 l-32 21 25 -22z"/>
<path d="M1387 2800 c26 -15 34 -29 40 -62 7 -42 7 -42 13 -13 3 17 2 37 -4
46 -10 17 -57 49 -73 49 -4 0 7 -9 24 -20z"/>
<path d="M1259 2793 c-13 -16 -12 -17 4 -4 9 7 17 15 17 17 0 8 -8 3 -21 -13z"/>
<path d="M700 2778 c0 -9 5 -20 10 -23 13 -8 13 5 0 25 -8 13 -10 13 -10 -2z"/>
<path d="M1300 2751 c0 -6 4 -13 10 -16 6 -3 7 1 4 9 -7 18 -14 21 -14 7z"/>
<path d="M1232 2725 c0 -16 2 -22 5 -12 2 9 2 23 0 30 -3 6 -5 -1 -5 -18z"/>
<path d="M3115 2729 c-27 -10 -37 -17 -21 -14 31 7 97 33 81 33 -5 0 -32 -8
-60 -19z"/>
<path d="M32 2713 c-26 -38 -34 -53 -29 -53 2 0 16 18 31 40 29 45 28 56 -2
13z"/>
<path d="M1452 2705 c0 -16 2 -22 5 -12 2 9 2 23 0 30 -3 6 -5 -1 -5 -18z"/>
<path d="M3028 2703 c6 -2 18 -2 25 0 6 3 1 5 -13 5 -14 0 -19 -2 -12 -5z"/>
<path d="M646 2685 c-9 -26 -7 -32 5 -12 6 10 9 21 6 23 -2 3 -7 -2 -11 -11z"/>
<path d="M2833 2693 c31 -2 83 -2 115 0 31 2 5 3 -58 3 -63 0 -89 -1 -57 -3z"/>
<path d="M1402 2659 c-13 -16 -17 -27 -10 -24 13 5 42 45 36 50 -2 1 -13 -11
-26 -26z"/>
<path d="M61 2656 c-8 -14 -11 -29 -8 -32 4 -4 11 4 16 17 5 13 10 18 10 12 1
-15 31 -18 31 -3 0 6 -6 10 -14 10 -8 0 -16 5 -18 11 -2 6 -10 -1 -17 -15z"/>
<path d="M661 2644 c0 -11 3 -14 6 -6 3 7 2 16 -1 19 -3 4 -6 -2 -5 -13z"/>
<path d="M1419 2633 c-13 -16 -12 -17 4 -4 9 7 17 15 17 17 0 8 -8 3 -21 -13z"/>
<path d="M17 2604 c-10 -13 -14 -24 -9 -24 6 0 13 8 16 17 6 15 8 15 16 3 8
-13 10 -12 10 2 0 27 -14 28 -33 2z"/>
<path d="M64 2618 c-3 -5 -3 -12 0 -15 3 -4 -1 -16 -9 -29 -13 -20 -12 -24 2
-36 9 -7 14 -8 10 -2 -8 14 13 80 22 66 4 -6 11 -5 18 3 9 10 7 14 -13 18 -13
2 -27 0 -30 -5z"/>
<path d="M1305 2620 c3 -5 13 -10 21 -10 8 0 12 5 9 10 -3 6 -13 10 -21 10 -8
0 -12 -4 -9 -10z"/>
<path d="M741 2604 c0 -11 3 -14 6 -6 3 7 2 16 -1 19 -3 4 -6 -2 -5 -13z"/>
<path d="M661 2564 c0 -11 3 -14 6 -6 3 7 2 16 -1 19 -3 4 -6 -2 -5 -13z"/>
<path d="M721 2564 c0 -11 3 -14 6 -6 3 7 2 16 -1 19 -3 4 -6 -2 -5 -13z"/>
<path d="M3 2552 c0 -10 7 -19 14 -19 15 0 15 0 7 21 -8 22 -23 20 -21 -2z"/>
<path d="M653 2487 c-1 -38 0 -39 8 -13 4 16 5 35 1 43 -5 7 -8 -5 -9 -30z"/>
<path d="M710 2519 c0 -5 5 -7 10 -4 6 3 10 8 10 11 0 2 -4 4 -10 4 -5 0 -10
-5 -10 -11z"/>
<path d="M690 2369 c0 -5 5 -7 10 -4 6 3 10 8 10 11 0 2 -4 4 -10 4 -5 0 -10
-5 -10 -11z"/>
<path d="M676 2333 c-6 -14 -5 -15 5 -6 7 7 10 15 7 18 -3 3 -9 -2 -12 -12z"/>
<path d="M540 2310 c-6 -12 -9 -24 -7 -27 3 -2 11 5 17 17 6 12 9 24 7 27 -3
2 -11 -5 -17 -17z"/>
<path d="M659 2298 c-6 -21 -5 -37 2 -32 5 3 7 9 4 14 -3 4 1 11 7 13 10 4 10
6 1 6 -7 1 -13 0 -14 -1z"/>
<path d="M486 2261 c-4 -5 -2 -13 4 -16 8 -5 7 -11 -1 -21 -13 -16 -6 -30 10
-19 13 8 14 52 2 60 -5 3 -12 1 -15 -4z"/>
<path d="M627 2236 c-4 -10 -1 -13 8 -9 8 3 12 9 9 14 -7 12 -11 11 -17 -5z"/>
<path d="M406 2114 c-9 -23 -7 -31 4 -14 5 8 12 12 15 8 3 -3 0 -12 -7 -19
-35 -37 -38 -45 -17 -46 14 -1 19 3 15 12 -3 8 3 16 13 20 13 4 17 12 14 25
-6 24 -30 33 -37 14z"/>
<path d="M3312 2100 c0 -19 2 -27 5 -17 2 9 2 25 0 35 -3 9 -5 1 -5 -18z"/>
<path d="M350 2065 c0 -18 -16 -20 -23 -2 -3 6 -5 -3 -4 -21 0 -19 5 -31 11
-29 6 3 10 10 8 16 -1 6 5 14 13 17 17 7 21 34 5 34 -5 0 -10 -7 -10 -15z"/>
<path d="M3260 2060 c0 -5 9 -10 20 -10 11 0 20 5 20 10 0 6 -9 10 -20 10 -11
0 -20 -4 -20 -10z"/>
<path d="M3330 2060 c0 -5 12 -10 26 -10 14 0 23 4 19 10 -3 6 -15 10 -26 10
-10 0 -19 -4 -19 -10z"/>
<path d="M3312 2020 c0 -19 2 -27 5 -17 2 9 2 25 0 35 -3 9 -5 1 -5 -18z"/>
<path d="M1632 1973 l1 -48 4 43 4 42 360 0 c197 0 359 -2 359 -5 0 -9 -183
-690 -186 -694 -7 -7 -122 41 -179 76 -33 19 -53 28 -47 20 17 -20 169 -96
207 -103 27 -5 32 -2 42 28 15 40 183 666 183 679 0 5 -153 9 -375 9 l-375 0
2 -47z"/>
<path d="M345 2000 c-4 -6 -12 -7 -18 -4 -7 4 -9 4 -5 -1 4 -4 2 -15 -4 -24
-10 -12 -7 -12 8 2 11 9 23 15 26 12 2 -3 5 2 5 10 0 18 -3 19 -12 5z"/>
<path d="M190 1931 c0 -4 11 -8 25 -9 14 -1 25 2 25 6 0 4 -11 8 -25 8 -14 1
-25 -1 -25 -5z"/>
<path d="M1642 1895 c0 -16 2 -22 5 -12 2 9 2 23 0 30 -3 6 -5 -1 -5 -18z"/>
<path d="M70 1901 c0 -5 7 -14 15 -21 16 -14 18 -10 9 14 -6 17 -24 22 -24 7z"/>
<path d="M1651 1844 c0 -11 3 -14 6 -6 3 7 2 16 -1 19 -3 4 -6 -2 -5 -13z"/>
<path d="M1661 1810 c0 -8 6 -28 14 -45 17 -39 18 -21 0 25 -7 19 -14 28 -14
20z"/>
<path d="M1690 1724 c0 -11 59 -114 65 -114 3 0 -9 26 -27 58 -37 66 -38 68
-38 56z"/>
<path d="M1766 1590 c36 -52 80 -101 121 -135 37 -29 30 -19 -32 46 -98 104
-101 107 -89 89z"/>
</g>
</svg>
